<?xml version="1.0" encoding="UTF-8" standalone="no"?>
<!-- Created with Inkscape (http://www.inkscape.org/) -->

<svg
   xmlns:dc="http://purl.org/dc/elements/1.1/"
   xmlns:cc="http://creativecommons.org/ns#"
   xmlns:rdf="http://www.w3.org/1999/02/22-rdf-syntax-ns#"
   xmlns:svg="http://www.w3.org/2000/svg"
   xmlns="http://www.w3.org/2000/svg"
   xmlns:sodipodi="http://sodipodi.sourceforge.net/DTD/sodipodi-0.dtd"
   xmlns:inkscape="http://www.inkscape.org/namespaces/inkscape"
   width="150"
   height="150"
   viewBox="0 0 39.6875 39.687501"
   version="1.1"
   id="svg921"
   sodipodi:docname="404.svg"
   inkscape:version="0.92.5 (2060ec1f9f, 2020-04-08)">
  <defs
     id="defs915" />
  <sodipodi:namedview
     id="base"
     pagecolor="#ffffff"
     bordercolor="#666666"
     borderopacity="1.0"
     inkscape:pageopacity="0.0"
     inkscape:pageshadow="2"
     inkscape:zoom="1.979899"
     inkscape:cx="19.578683"
     inkscape:cy="36.855881"
     inkscape:document-units="px"
     inkscape:current-layer="layer1"
     showgrid="false"
     units="px"
     inkscape:window-width="1294"
     inkscape:window-height="704"
     inkscape:window-x="72"
     inkscape:window-y="27"
     inkscape:window-maximized="1" />
  <metadata
     id="metadata918">
    <rdf:RDF>
      <cc:Work
         rdf:about="">
        <dc:format>image/svg+xml</dc:format>
        <dc:type
           rdf:resource="http://purl.org/dc/dcmitype/StillImage" />
        <dc:title></dc:title>
      </cc:Work>
    </rdf:RDF>
  </metadata>
  <g
     inkscape:label="Layer 1"
     inkscape:groupmode="layer"
     id="layer1"
     transform="translate(0,-257.31249)">
    <path
       style="opacity:1;fill:#ccc;fill-opacity:1;stroke-width:0.1065361"
       d="m 20.31197,257.61981 a 19.843729,11.906236 0 0 0 -8.105385,0.92373 4.7732613,4.7732613 0 0 1 1.489368,3.46069 4.7732613,4.7732613 0 0 1 -0.590662,2.29866 4.7732613,4.7732613 0 0 1 0.696898,2.47462 4.7732613,4.7732613 0 0 1 -0.879839,2.74515 h 6.921399 19.843748 a 19.843729,11.906236 0 0 0 -9.921874,-10.31114 19.843729,11.906236 0 0 0 -9.453653,-1.59171 z m -8.404612,12.95291 a 4.7732613,4.7732613 0 0 1 -0.929471,0.55538 6.7886384,6.7886384 0 0 1 -2.6442347,3.41333 H 37.703244 c 1.099343,0 1.984253,-0.88491 1.984253,-1.98426 0,-1.09934 -0.88491,-1.98445 -1.984253,-1.98445 z m -9.9229007,4.59874 a 4.7732613,4.7732613 0 0 1 -1.94446421,1.58473 c -0.02619,0.129 -0.03998999996,0.26274 -0.03998999996,0.39973 0,1.09934 0.88511519996,1.98446 1.98445720996,1.98446 H 37.703247 c 1.099343,0 1.984253,-0.88512 1.984253,-1.98446 0,-1.09935 -0.88491,-1.98446 -1.984253,-1.98446 H 7.1545873 a 6.7886384,6.7886384 0 0 1 -2.580861,0.51622 6.7886384,6.7886384 0 0 1 -2.589269,-0.51622 z m 0,4.59895 c -1.09934201,0 -1.98445720996004,0.88492 -1.98445720996004,1.98425 0,1.09935 0.88511519996004,1.98446 1.98445720996004,1.98446 H 37.703244 c 1.099343,0 1.984253,-0.88511 1.984253,-1.98446 0,-1.09933 -0.88491,-1.98425 -1.984253,-1.98425 z M 9.003996e-8,284.78919 A 19.843729,11.906236 0 0 0 9.9218743,295.10033 a 19.843729,11.906236 0 0 0 19.8437487,0 19.843729,11.906236 0 0 0 9.921874,-10.31114 H 19.843749 Z"
       id="path817"
       inkscape:connector-curvature="0" />
  </g>
</svg>
